<?xml version="1.0" encoding="UTF-8"?>
<svg width="700pt" height="700pt" version="1.1" viewBox="0 0 700 700" xmlns="http://www.w3.org/2000/svg" xmlns:xlink="http://www.w3.org/1999/xlink">
 <defs>
  <symbol id="t" overflow="visible">
   <path d="m6.7031-0.40625c-0.34375 0.1875-0.70312 0.32422-1.0781 0.40625-0.375 0.09375-0.76562 0.14062-1.1719 0.14062-1.2188 0-2.1836-0.33594-2.8906-1.0156-0.71094-0.67578-1.0625-1.5977-1.0625-2.7656 0-1.1641 0.35156-2.0859 1.0625-2.7656 0.70703-0.67578 1.6719-1.0156 2.8906-1.0156 0.40625 0 0.79688 0.046875 1.1719 0.14062 0.375 0.085938 0.73438 0.21875 1.0781 0.40625v1.5c-0.35547-0.23828-0.70312-0.41016-1.0469-0.51562-0.33594-0.11328-0.6875-0.17188-1.0625-0.17188-0.66797 0-1.1953 0.21875-1.5781 0.65625-0.38672 0.42969-0.57812 1.0156-0.57812 1.7656s0.19141 1.3438 0.57812 1.7812c0.38281 0.42969 0.91016 0.64062 1.5781 0.64062 0.375 0 0.72656-0.050781 1.0625-0.15625 0.34375-0.11328 0.69141-0.28906 1.0469-0.53125z"/>
  </symbol>
  <symbol id="a" overflow="visible">
   <path d="m4.9062-3.9844c-0.15625-0.070313-0.3125-0.125-0.46875-0.15625-0.14844-0.03125-0.29688-0.046875-0.45312-0.046875-0.44922 0-0.79297 0.14844-1.0312 0.4375-0.24219 0.28125-0.35938 0.69531-0.35938 1.2344v2.5156h-1.75v-5.4688h1.75v0.89062c0.21875-0.35156 0.47266-0.60938 0.76562-0.76562 0.28906-0.16406 0.64062-0.25 1.0469-0.25h0.1875c0.070312 0 0.17188 0.011719 0.29688 0.03125z"/>
  </symbol>
  <symbol id="d" overflow="visible">
   <path d="m6.2969-2.75v0.5h-4.0781c0.039062 0.40625 0.1875 0.71484 0.4375 0.92188 0.25 0.21094 0.60156 0.3125 1.0625 0.3125 0.36328 0 0.73828-0.050781 1.125-0.15625 0.39453-0.11328 0.79688-0.28516 1.2031-0.51562v1.3594c-0.41797 0.15625-0.83594 0.27344-1.25 0.34375-0.40625 0.082031-0.82031 0.125-1.2344 0.125-0.99219 0-1.7617-0.25-2.3125-0.75-0.54297-0.50781-0.8125-1.2188-0.8125-2.125 0-0.88281 0.26562-1.582 0.79688-2.0938 0.53906-0.50781 1.2852-0.76562 2.2344-0.76562 0.85156 0 1.5352 0.26172 2.0469 0.78125 0.51953 0.51172 0.78125 1.1992 0.78125 2.0625zm-1.7969-0.57812c0-0.33203-0.10156-0.59766-0.29688-0.79688-0.1875-0.20703-0.4375-0.3125-0.75-0.3125-0.34375 0-0.62109 0.09375-0.82812 0.28125-0.21094 0.1875-0.33984 0.46484-0.39062 0.82812z"/>
  </symbol>
  <symbol id="f" overflow="visible">
   <path d="m3.2969-2.4688c-0.36719 0-0.64062 0.0625-0.82812 0.1875s-0.28125 0.30859-0.28125 0.54688c0 0.23047 0.070312 0.40625 0.21875 0.53125 0.15625 0.125 0.36328 0.1875 0.625 0.1875 0.33203 0 0.60938-0.11719 0.82812-0.35938 0.22656-0.23828 0.34375-0.53516 0.34375-0.89062v-0.20312zm2.6719-0.65625v3.125h-1.7656v-0.8125c-0.24219 0.33594-0.50781 0.57812-0.79688 0.73438-0.29297 0.14453-0.64844 0.21875-1.0625 0.21875-0.57422 0-1.0391-0.16016-1.3906-0.48438-0.34375-0.33203-0.51562-0.76562-0.51562-1.2969 0-0.64453 0.21875-1.1133 0.65625-1.4062 0.4375-0.30078 1.1289-0.45312 2.0781-0.45312h1.0312v-0.14062c0-0.26953-0.10938-0.46875-0.32812-0.59375-0.21875-0.13281-0.55859-0.20312-1.0156-0.20312-0.375 0-0.72656 0.039062-1.0469 0.10938-0.32422 0.074219-0.625 0.1875-0.90625 0.34375v-1.3438c0.375-0.082031 0.75-0.14453 1.125-0.1875 0.38281-0.050781 0.76562-0.078125 1.1406-0.078125 0.98828 0 1.7031 0.19531 2.1406 0.57812 0.4375 0.38672 0.65625 1.0156 0.65625 1.8906z"/>
  </symbol>
  <symbol id="c" overflow="visible">
   <path d="m2.75-7.0156v1.5469h1.7969v1.25h-1.7969v2.3125c0 0.26172 0.046875 0.4375 0.14062 0.53125 0.10156 0.085938 0.30469 0.125 0.60938 0.125h0.90625v1.25h-1.5c-0.69922 0-1.1953-0.14062-1.4844-0.42188-0.28125-0.28906-0.42188-0.78516-0.42188-1.4844v-2.3125h-0.875v-1.25h0.875v-1.5469z"/>
  </symbol>
  <symbol id="k" overflow="visible">
   <path d="m4.5625-4.6719v-2.9219h1.75v7.5938h-1.75v-0.79688c-0.24219 0.32422-0.50781 0.5625-0.79688 0.71875-0.29297 0.14453-0.625 0.21875-1 0.21875-0.67969 0-1.2344-0.26562-1.6719-0.79688-0.42969-0.53906-0.64062-1.2344-0.64062-2.0781s0.21094-1.5312 0.64062-2.0625c0.4375-0.53125 0.99219-0.79688 1.6719-0.79688 0.375 0 0.70703 0.078125 1 0.23438 0.28906 0.14844 0.55469 0.375 0.79688 0.6875zm-1.1562 3.5469c0.375 0 0.66016-0.13281 0.85938-0.40625 0.19531-0.28125 0.29688-0.67969 0.29688-1.2031 0-0.51953-0.10156-0.91406-0.29688-1.1875-0.19922-0.26953-0.48438-0.40625-0.85938-0.40625-0.36719 0-0.64844 0.13672-0.84375 0.40625-0.19922 0.27344-0.29688 0.66797-0.29688 1.1875 0 0.52344 0.097656 0.92188 0.29688 1.2031 0.19531 0.27344 0.47656 0.40625 0.84375 0.40625z"/>
  </symbol>
  <symbol id="j" overflow="visible">
   <path d="m3.75-1.125c0.375 0 0.66016-0.13281 0.85938-0.40625 0.19531-0.28125 0.29688-0.67969 0.29688-1.2031 0-0.51953-0.10156-0.91406-0.29688-1.1875-0.19922-0.26953-0.48438-0.40625-0.85938-0.40625s-0.66406 0.14062-0.85938 0.42188c-0.19922 0.27344-0.29688 0.66406-0.29688 1.1719 0 0.52344 0.097656 0.92188 0.29688 1.2031 0.19531 0.27344 0.48438 0.40625 0.85938 0.40625zm-1.1562-3.5469c0.23828-0.3125 0.50391-0.53906 0.79688-0.6875 0.28906-0.15625 0.62891-0.23438 1.0156-0.23438 0.66406 0 1.2109 0.26562 1.6406 0.79688 0.4375 0.53125 0.65625 1.2188 0.65625 2.0625s-0.21875 1.5391-0.65625 2.0781c-0.42969 0.53125-0.97656 0.79688-1.6406 0.79688-0.38672 0-0.72656-0.074219-1.0156-0.21875-0.29297-0.15625-0.55859-0.39453-0.79688-0.71875v0.79688h-1.75v-7.5938h1.75z"/>
  </symbol>
  <symbol id="i" overflow="visible">
   <path d="m0.125-5.4688h1.75l1.4688 3.7031 1.25-3.7031h1.75l-2.3125 5.9844c-0.23047 0.61328-0.5 1.0391-0.8125 1.2812-0.30469 0.23828-0.70312 0.35938-1.2031 0.35938h-1.0156v-1.1406h0.54688c0.30078 0 0.51562-0.046875 0.64062-0.14062 0.13281-0.09375 0.24219-0.26562 0.32812-0.51562l0.046875-0.15625z"/>
  </symbol>
  <symbol id="e" overflow="visible">
   <path d="m2.5938-0.79688v2.875h-1.75v-7.5469h1.75v0.79688c0.23828-0.3125 0.50391-0.53906 0.79688-0.6875 0.28906-0.15625 0.62891-0.23438 1.0156-0.23438 0.66406 0 1.2109 0.26562 1.6406 0.79688 0.4375 0.53125 0.65625 1.2188 0.65625 2.0625s-0.21875 1.5391-0.65625 2.0781c-0.42969 0.53125-0.97656 0.79688-1.6406 0.79688-0.38672 0-0.72656-0.074219-1.0156-0.21875-0.29297-0.15625-0.55859-0.39453-0.79688-0.71875zm1.1562-3.5312c-0.375 0-0.66406 0.14062-0.85938 0.42188-0.19922 0.27344-0.29688 0.66406-0.29688 1.1719 0 0.52344 0.097656 0.92188 0.29688 1.2031 0.19531 0.27344 0.48438 0.40625 0.85938 0.40625s0.66016-0.13281 0.85938-0.40625c0.19531-0.28125 0.29688-0.67969 0.29688-1.2031 0-0.51953-0.10156-0.91406-0.29688-1.1875-0.19922-0.26953-0.48438-0.40625-0.85938-0.40625z"/>
  </symbol>
  <symbol id="b" overflow="visible">
   <path d="m3.4375-4.3438c-0.38672 0-0.68359 0.14062-0.89062 0.42188-0.19922 0.27344-0.29688 0.66797-0.29688 1.1875 0 0.53125 0.097656 0.9375 0.29688 1.2188 0.20703 0.27344 0.50391 0.40625 0.89062 0.40625 0.38281 0 0.67578-0.13281 0.875-0.40625 0.20703-0.28125 0.3125-0.6875 0.3125-1.2188 0-0.51953-0.10547-0.91406-0.3125-1.1875-0.19922-0.28125-0.49219-0.42188-0.875-0.42188zm0-1.25c0.94531 0 1.6797 0.25781 2.2031 0.76562 0.53125 0.5 0.79688 1.1992 0.79688 2.0938 0 0.90625-0.26562 1.6172-0.79688 2.125-0.52344 0.5-1.2578 0.75-2.2031 0.75-0.9375 0-1.6719-0.25-2.2031-0.75-0.53125-0.50781-0.79688-1.2188-0.79688-2.125 0-0.89453 0.26562-1.5938 0.79688-2.0938 0.53125-0.50781 1.2656-0.76562 2.2031-0.76562z"/>
  </symbol>
  <symbol id="h" overflow="visible">
   <path d="m5.2656-5.2969v1.4219c-0.24219-0.15625-0.48047-0.26953-0.71875-0.34375-0.24219-0.082031-0.49219-0.125-0.75-0.125-0.49219 0-0.87109 0.14062-1.1406 0.42188-0.27344 0.28125-0.40625 0.67969-0.40625 1.1875 0 0.51172 0.13281 0.91406 0.40625 1.2031 0.26953 0.28125 0.64844 0.42188 1.1406 0.42188 0.26953 0 0.53125-0.039063 0.78125-0.125 0.25-0.082031 0.47656-0.20312 0.6875-0.35938v1.4375c-0.28125 0.09375-0.5625 0.16406-0.84375 0.21875-0.28125 0.050781-0.5625 0.078125-0.84375 0.078125-0.99219 0-1.7617-0.25-2.3125-0.75-0.55469-0.50781-0.82812-1.2188-0.82812-2.125 0-0.89453 0.27344-1.5938 0.82812-2.0938 0.55078-0.50781 1.3203-0.76562 2.3125-0.76562 0.28906 0 0.57031 0.027344 0.84375 0.078125 0.28125 0.042969 0.5625 0.11719 0.84375 0.21875z"/>
  </symbol>
  <symbol id="g" overflow="visible">
   <path d="m6.3438-3.3281v3.3281h-1.7656v-2.5469c0-0.46875-0.011719-0.78906-0.03125-0.96875-0.023437-0.1875-0.058594-0.32031-0.10938-0.40625-0.0625-0.11328-0.15625-0.20312-0.28125-0.26562-0.11719-0.0625-0.24609-0.09375-0.39062-0.09375-0.36719 0-0.65234 0.14062-0.85938 0.42188-0.21094 0.28125-0.3125 0.67188-0.3125 1.1719v2.6875h-1.75v-5.4688h1.75v0.79688c0.25781-0.3125 0.53516-0.53906 0.82812-0.6875 0.30078-0.15625 0.62891-0.23438 0.98438-0.23438 0.63281 0 1.1133 0.19531 1.4375 0.57812 0.33203 0.38672 0.5 0.94922 0.5 1.6875z"/>
  </symbol>
  <symbol id="s" overflow="visible">
   <path d="m5.1094-5.2969v1.3281c-0.375-0.15625-0.74219-0.26953-1.0938-0.34375-0.34375-0.082031-0.66797-0.125-0.96875-0.125-0.33594 0-0.58594 0.042969-0.75 0.125-0.15625 0.085938-0.23438 0.21094-0.23438 0.375 0 0.14844 0.054688 0.25781 0.17188 0.32812 0.125 0.074219 0.34766 0.13281 0.67188 0.17188l0.29688 0.03125c0.89453 0.11719 1.5 0.30469 1.8125 0.5625 0.3125 0.26172 0.46875 0.67188 0.46875 1.2344 0 0.58594-0.21875 1.0234-0.65625 1.3125-0.42969 0.29297-1.0703 0.4375-1.9219 0.4375-0.35547 0-0.72656-0.03125-1.1094-0.09375-0.38672-0.050781-0.78906-0.13281-1.2031-0.25v-1.3281c0.35156 0.16797 0.71094 0.29688 1.0781 0.39062 0.36328 0.085937 0.73438 0.125 1.1094 0.125 0.34375 0 0.59766-0.046875 0.76562-0.14062 0.17578-0.09375 0.26562-0.23438 0.26562-0.42188 0-0.15625-0.058594-0.26953-0.17188-0.34375-0.11719-0.082031-0.35156-0.14453-0.70312-0.1875l-0.3125-0.046875c-0.78125-0.09375-1.3281-0.26953-1.6406-0.53125-0.3125-0.26953-0.46875-0.67188-0.46875-1.2031 0-0.58203 0.19531-1.0078 0.59375-1.2812 0.39453-0.28125 1.0039-0.42188 1.8281-0.42188 0.32031 0 0.66016 0.027344 1.0156 0.078125 0.35156 0.042969 0.73828 0.11719 1.1562 0.21875z"/>
  </symbol>
  <symbol id="r" overflow="visible">
   <path d="m4.4375-7.5938v1.1406h-0.96875c-0.25 0-0.42188 0.046875-0.51562 0.14062-0.09375 0.085938-0.14062 0.24219-0.14062 0.46875v0.375h1.4844v1.25h-1.4844v4.2188h-1.75v-4.2188h-0.875v-1.25h0.875v-0.375c0-0.60156 0.16406-1.0469 0.5-1.3281 0.33203-0.28125 0.84375-0.42188 1.5312-0.42188z"/>
  </symbol>
  <symbol id="q" overflow="visible">
   <path d="m5.9062-4.5625c0.21875-0.33203 0.47656-0.58594 0.78125-0.76562 0.3125-0.17578 0.64844-0.26562 1.0156-0.26562 0.625 0 1.0977 0.19531 1.4219 0.57812 0.33203 0.38672 0.5 0.94922 0.5 1.6875v3.3281h-1.75v-2.8594-0.125-0.1875c0-0.39453-0.058594-0.67578-0.17188-0.84375-0.10547-0.17578-0.28906-0.26562-0.54688-0.26562-0.33594 0-0.58984 0.13672-0.76562 0.40625-0.17969 0.27344-0.27344 0.66797-0.28125 1.1875v2.6875h-1.7656v-2.8594c0-0.60156-0.054688-0.98828-0.15625-1.1562-0.10547-0.17578-0.28906-0.26562-0.54688-0.26562-0.33594 0-0.59375 0.14062-0.78125 0.42188-0.17969 0.27344-0.26562 0.66406-0.26562 1.1719v2.6875h-1.7656v-5.4688h1.7656v0.79688c0.20703-0.30078 0.45312-0.53125 0.73438-0.6875s0.58594-0.23438 0.92188-0.23438c0.375 0 0.70703 0.09375 1 0.28125 0.28906 0.17969 0.50781 0.42969 0.65625 0.75z"/>
  </symbol>
  <symbol id="p" overflow="visible">
   <path d="m6.3438-3.3281v3.3281h-1.7656v-2.5469c0-0.46875-0.011719-0.78906-0.03125-0.96875-0.023437-0.1875-0.058594-0.32031-0.10938-0.40625-0.0625-0.11328-0.15625-0.20312-0.28125-0.26562-0.11719-0.0625-0.24609-0.09375-0.39062-0.09375-0.36719 0-0.65234 0.14062-0.85938 0.42188-0.21094 0.28125-0.3125 0.67188-0.3125 1.1719v2.6875h-1.75v-7.5938h1.75v2.9219c0.25781-0.3125 0.53516-0.53906 0.82812-0.6875 0.30078-0.15625 0.62891-0.23438 0.98438-0.23438 0.63281 0 1.1133 0.19531 1.4375 0.57812 0.33203 0.38672 0.5 0.94922 0.5 1.6875z"/>
  </symbol>
  <symbol id="o" overflow="visible">
   <path d="m0.92188-7.2969h2.0938l2.6562 5v-5h1.7812v7.2969h-2.0938l-2.6562-5v5h-1.7812z"/>
  </symbol>
  <symbol id="n" overflow="visible">
   <path d="m0.78125-2.125v-3.3438h1.7656v0.54688c0 0.29297-0.007813 0.66406-0.015625 1.1094v0.90625c0 0.4375 0.007812 0.75781 0.03125 0.95312 0.019531 0.1875 0.0625 0.32812 0.125 0.42188 0.0625 0.10547 0.14844 0.1875 0.26562 0.25 0.125 0.0625 0.25781 0.09375 0.40625 0.09375 0.36328 0 0.64844-0.13281 0.85938-0.40625 0.20703-0.28125 0.3125-0.67188 0.3125-1.1719v-2.7031h1.75v5.4688h-1.75v-0.79688c-0.26172 0.32422-0.54297 0.5625-0.84375 0.71875-0.29297 0.14453-0.61719 0.21875-0.96875 0.21875-0.63672 0-1.1211-0.19141-1.4531-0.57812-0.32422-0.38281-0.48438-0.94531-0.48438-1.6875z"/>
  </symbol>
  <symbol id="m" overflow="visible">
   <path d="m0.92188-7.2969h3.1094c0.9375 0 1.6484 0.21094 2.1406 0.625 0.5 0.40625 0.75 0.99609 0.75 1.7656 0 0.76172-0.25 1.3516-0.75 1.7656-0.49219 0.40625-1.2031 0.60938-2.1406 0.60938h-1.2344v2.5312h-1.875zm1.875 1.375v2.0312h1.0469c0.36328 0 0.64453-0.085937 0.84375-0.26562 0.19531-0.17578 0.29688-0.42578 0.29688-0.75 0-0.33203-0.10156-0.58203-0.29688-0.75-0.19922-0.17578-0.48047-0.26562-0.84375-0.26562z"/>
  </symbol>
  <symbol id="l" overflow="visible">
   <path d="m0.84375-5.4688h1.75v5.375c0 0.72656-0.17969 1.2852-0.53125 1.6719-0.35547 0.38281-0.86719 0.57812-1.5312 0.57812h-0.85938v-1.1406h0.29688c0.33203 0 0.5625-0.078125 0.6875-0.23438 0.125-0.14844 0.1875-0.4375 0.1875-0.875zm0-2.125h1.75v1.4219h-1.75z"/>
  </symbol>
 </defs>
 <g>
  <path d="m186.51 224.91-34.441-34.656c-0.67578-0.21875-1.3203-0.55859-1.9023-1.0312l-43.828-35.098c-1.418 0.41797-2.8945 0.61328-4.3672 0.58594-3.043-0.0625-6.0859-1.0859-8.625-3.1211l-0.011718-0.011719c-3.0625-2.457-4.8438-5.9375-5.2422-9.5664-0.40234-3.6289 0.58203-7.4219 3.0469-10.504l0.003906-0.003906 37.547-46.891c2.457-3.0664 5.9414-4.8516 9.5742-5.2539 3.6172-0.39844 7.4023 0.58594 10.48 3.0508 2.5547 2.0469 4.2227 4.7812 4.9414 7.7148 0.35547 1.4336 0.48438 2.9219 0.38281 4.3984l43.598 34.91 141.43 89.465h266.53c3.3125 0 6 2.6875 6 6v0.058593c0.10156 1.8086 0.1875 3.7695 0.25391 5.9062 0.078126 2.5391 0.12109 4.6758 0.12109 6.3398 0 58.801-23.836 112.04-62.367 150.57-21.699 21.699-48.062 38.738-77.457 49.484l2.3438 8.9219 16.527 7.9844c2.1367 1.0312 3.3828 3.1641 3.3828 5.3906h0.015625v15.176c0 3.3125-2.6875 6-6 6h-178.76c-3.3125 0-6-2.6875-6-6v-15.176c0-2.5312 1.5703-4.6992 3.7891-5.5781l16.137-7.7969 2.3438-8.9219c-29.395-10.746-55.758-27.785-77.457-49.484-38.531-38.531-62.367-91.766-62.367-150.57 0-1.6641 0.042969-3.8008 0.12109-6.3398 0.066407-2.1758 0.15234-4.1523 0.25781-5.957zm365.21 57.25c0.69922-3.2344 3.8867-5.293 7.125-4.5938 3.2344 0.69922 5.293 3.8906 4.5938 7.125-0.14453 0.66016-0.40234 1.75-0.76953 3.2734-0.30859 1.2812-0.58203 2.3594-0.81641 3.2422-0.83984 3.1992-4.1133 5.1055-7.3125 4.2656-3.1953-0.83984-5.1055-4.1172-4.2656-7.3125 0.3125-1.1914 0.57031-2.1992 0.76953-3.0117 0.13281-0.55469 0.35938-1.5586 0.67578-2.9922zm-11.098 32.141c1.4375-2.9766 5.0156-4.2266 7.9922-2.7891 2.9766 1.4375 4.2227 5.0156 2.7891 7.9922-13.09 27.172-33.66 50.062-59.035 66.012-24.59 15.453-53.66 24.387-84.797 24.387-3.3125 0-6-2.6875-6-6s2.6875-6 6-6c28.84 0 55.723-8.25 78.422-22.512 23.48-14.758 42.512-35.941 54.629-61.09zm-79.828 126.75c-19.535 5.9062-40.262 9.0898-61.727 9.0898s-42.188-3.1797-61.727-9.0898l-2.8477 10.84h-0.003907c-0.42969 1.6328-1.5469 3.0742-3.1875 3.8672l-15.617 7.543v5.4258h166.76v-5.4258l-15.574-7.5234c-1.5391-0.73047-2.7617-2.1094-3.2266-3.8867zm-298.45-257.44 35.066 35.285h119.3l-121.22-76.684-33.152 41.398zm23.41-48.383-42.07-33.688v-0.003906c-2.0508-1.6484-2.8398-4.5234-1.7344-7.0547 0.20313-0.46875 0.23828-1 0.11328-1.5039-0.12109-0.48828-0.37891-0.93359-0.77344-1.2422-0.48047-0.38672-1.1055-0.53906-1.7148-0.47266-0.59375 0.066406-1.1602 0.35547-1.5586 0.84766l-37.27 46.543c-0.125 0.18359-0.26172 0.35938-0.40625 0.52734-0.29297 0.44922-0.40234 0.98828-0.34766 1.5156 0.058594 0.52344 0.28906 1.0234 0.67578 1.4062 0.12109 0.089844 0.23828 0.18359 0.35156 0.28125 0.36328 0.23828 0.77344 0.35938 1.1797 0.36719 0.51563 0.011719 1.0234-0.14062 1.4414-0.44531 2.1328-1.5664 5.1289-1.5703 7.2891 0.16016l42.051 33.676 32.77-40.918zm414.18 95.965-0.007812-0.29688h-401.7l-0.011719 0.29688c-0.046875 1.5586-0.074219 3.543-0.074219 6.0117 0 55.484 22.488 105.72 58.852 142.08 36.359 36.359 86.594 58.852 142.08 58.852s105.72-22.492 142.08-58.852c36.359-36.363 58.852-86.598 58.852-142.08 0-2.4688-0.027344-4.4531-0.074219-6.0117zm-214.14-35.977c4.8984-2.2344 12-6.0352 18.879-11.738 5.8008-4.8086 11.434-10.969 15.391-18.66 0.75781-1.4688 2.5625-2.0469 4.0312-1.2891 1.4688 0.75781 2.0469 2.5625 1.2891 4.0312-4.3789 8.5156-10.551 15.281-16.891 20.539-6.6133 5.4805-13.426 9.3281-18.559 11.793 40.047 4.3906 44.258-33.73 44.559-46.34-0.76172 0.054688-1.5195 0.11719-2.2734 0.19531-14.664 1.4492-26.477 6.9141-34.523 14.957-7.1211 7.1133-11.305 16.297-11.898 26.512zm-7.8047 7.5898c-0.125-1.3398-0.20312-2.6875-0.22656-4.0391v-0.027344c-0.26562-13.789 4.8633-26.246 14.309-35.691 9.3047-9.2969 22.781-15.602 39.367-17.238 2.2305-0.21875 4.5469-0.35547 6.9492-0.40234 2.1523-0.035156 3.9375 1.6484 4.043 3.7812h0.007813c0.011718 0.20312 4.2422 71.316-61.281 57.359-1.8203-0.38672-3.0898-1.9609-3.1602-3.7422zm-0.22656-4.0547v-0.011719zm-14.926-12.191c-7.9219-3.3477-21.527-10.027-34.621-20.883-9.7109-8.0508-19.156-18.402-25.852-31.418-0.75781-1.4688-0.17969-3.2734 1.2891-4.0312 1.4688-0.75781 3.2734-0.17969 4.0312 1.2891 6.2695 12.191 15.176 21.938 24.352 29.543 12.336 10.227 25.129 16.57 32.738 19.812-0.27734-17.625-7.1172-33.5-19.262-45.641-12.863-12.855-31.695-21.594-55.039-23.898-1.9766-0.19531-3.9766-0.34375-5.9961-0.44531 0.039062 17.664 4.7578 88.391 78.363 75.672zm9.8984-3.0664c-0.039062 2.0938-0.16016 4.1797-0.35937 6.2578-0.074219 1.7773-1.3398 3.3516-3.1602 3.7344-99.055 21.102-92.648-86.602-92.633-86.906h0.003906c0.10156-2.1406 1.8828-3.8281 4.043-3.7969 3.6562 0.070312 7.1992 0.27734 10.625 0.61719 25.262 2.4922 45.762 12.066 59.879 26.18 14.266 14.258 22.008 33.086 21.602 53.918z"/>
 </g>
</svg>
