<?xml version="1.0" encoding="UTF-8"?>
<svg width="700pt" height="700pt" version="1.1" viewBox="0 0 700 700" xmlns="http://www.w3.org/2000/svg" xmlns:xlink="http://www.w3.org/1999/xlink">
 <defs>
  <symbol id="u" overflow="visible">
   <path d="m18.766-1.125c-0.96875 0.5-1.9805 0.875-3.0312 1.125-1.043 0.25781-2.1367 0.39062-3.2812 0.39062-3.3984 0-6.0898-0.94531-8.0781-2.8438-1.9922-1.9062-2.9844-4.4844-2.9844-7.7344 0-3.2578 0.99219-5.8359 2.9844-7.7344 1.9883-1.9062 4.6797-2.8594 8.0781-2.8594 1.1445 0 2.2383 0.13281 3.2812 0.39062 1.0508 0.25 2.0625 0.625 3.0312 1.125v4.2188c-0.98047-0.65625-1.9453-1.1406-2.8906-1.4531-0.94922-0.3125-1.9492-0.46875-3-0.46875-1.875 0-3.3516 0.60547-4.4219 1.8125-1.0742 1.1992-1.6094 2.8555-1.6094 4.9688 0 2.1055 0.53516 3.7617 1.6094 4.9688 1.0703 1.1992 2.5469 1.7969 4.4219 1.7969 1.0508 0 2.0508-0.14844 3-0.45312 0.94531-0.3125 1.9102-0.80078 2.8906-1.4688z"/>
  </symbol>
  <symbol id="d" overflow="visible">
   <path d="m13.734-11.141c-0.4375-0.19531-0.87109-0.34375-1.2969-0.4375-0.41797-0.10156-0.83984-0.15625-1.2656-0.15625-1.2617 0-2.2305 0.40625-2.9062 1.2188-0.67969 0.80469-1.0156 1.9531-1.0156 3.4531v7.0625h-4.8906v-15.312h4.8906v2.5156c0.625-1 1.3438-1.7266 2.1562-2.1875 0.82031-0.46875 1.8008-0.70312 2.9375-0.70312 0.16406 0 0.34375 0.011719 0.53125 0.03125 0.19531 0.011719 0.47656 0.039062 0.84375 0.078125z"/>
  </symbol>
  <symbol id="b" overflow="visible">
   <path d="m17.641-7.7031v1.4062h-11.453c0.125 1.1484 0.53906 2.0078 1.25 2.5781 0.70703 0.57422 1.7031 0.85938 2.9844 0.85938 1.0312 0 2.082-0.14844 3.1562-0.45312 1.082-0.3125 2.1914-0.77344 3.3281-1.3906v3.7656c-1.1562 0.4375-2.3125 0.76562-3.4688 0.98438-1.1562 0.22656-2.3125 0.34375-3.4688 0.34375-2.7734 0-4.9297-0.70312-6.4688-2.1094-1.5312-1.4062-2.2969-3.3789-2.2969-5.9219 0-2.5 0.75391-4.4609 2.2656-5.8906 1.5078-1.4375 3.582-2.1562 6.2188-2.1562 2.4062 0 4.332 0.73047 5.7812 2.1875 1.4453 1.4492 2.1719 3.3828 2.1719 5.7969zm-5.0312-1.625c0-0.92578-0.27344-1.6719-0.8125-2.2344-0.54297-0.57031-1.25-0.85938-2.125-0.85938-0.94922 0-1.7188 0.26562-2.3125 0.79688s-0.96484 1.2969-1.1094 2.2969z"/>
  </symbol>
  <symbol id="l" overflow="visible">
   <path d="m9.2188-6.8906c-1.0234 0-1.793 0.17188-2.3125 0.51562-0.51172 0.34375-0.76562 0.85547-0.76562 1.5312 0 0.625 0.20703 1.1172 0.625 1.4688 0.41406 0.34375 0.98828 0.51562 1.7188 0.51562 0.92578 0 1.7031-0.32812 2.3281-0.98438 0.63281-0.66406 0.95312-1.4922 0.95312-2.4844v-0.5625zm7.4688-1.8438v8.7344h-4.9219v-2.2656c-0.65625 0.92969-1.3984 1.6055-2.2188 2.0312-0.82422 0.41406-1.8242 0.625-3 0.625-1.5859 0-2.8711-0.45703-3.8594-1.375-0.99219-0.92578-1.4844-2.1289-1.4844-3.6094 0-1.7891 0.61328-3.1016 1.8438-3.9375 1.2383-0.84375 3.1797-1.2656 5.8281-1.2656h2.8906v-0.39062c0-0.76953-0.30859-1.332-0.92188-1.6875-0.61719-0.36328-1.5703-0.54688-2.8594-0.54688-1.0547 0-2.0312 0.10547-2.9375 0.3125-0.89844 0.21094-1.7305 0.52344-2.5 0.9375v-3.7344c1.0391-0.25 2.0859-0.44141 3.1406-0.57812 1.0625-0.13281 2.125-0.20312 3.1875-0.20312 2.7578 0 4.75 0.54688 5.9688 1.6406 1.2266 1.0859 1.8438 2.8555 1.8438 5.3125z"/>
  </symbol>
  <symbol id="a" overflow="visible">
   <path d="m7.7031-19.656v4.3438h5.0469v3.5h-5.0469v6.5c0 0.71094 0.14062 1.1875 0.42188 1.4375s0.83594 0.375 1.6719 0.375h2.5156v3.5h-4.1875c-1.9375 0-3.3125-0.39844-4.125-1.2031-0.80469-0.8125-1.2031-2.1797-1.2031-4.1094v-6.5h-2.4219v-3.5h2.4219v-4.3438z"/>
  </symbol>
  <symbol id="k" overflow="visible">
   <path d="m12.766-13.078v-8.2031h4.9219v21.281h-4.9219v-2.2188c-0.66797 0.90625-1.4062 1.5703-2.2188 1.9844s-1.7578 0.625-2.8281 0.625c-1.8867 0-3.4336-0.75-4.6406-2.25-1.2109-1.5-1.8125-3.4258-1.8125-5.7812 0-2.3633 0.60156-4.2969 1.8125-5.7969 1.207-1.5 2.7539-2.25 4.6406-2.25 1.0625 0 2 0.21484 2.8125 0.64062 0.82031 0.42969 1.5664 1.0859 2.2344 1.9688zm-3.2188 9.9219c1.0391 0 1.8359-0.37891 2.3906-1.1406 0.55078-0.76953 0.82812-1.8828 0.82812-3.3438 0-1.457-0.27734-2.5664-0.82812-3.3281-0.55469-0.76953-1.3516-1.1562-2.3906-1.1562-1.043 0-1.8398 0.38672-2.3906 1.1562-0.55469 0.76172-0.82812 1.8711-0.82812 3.3281 0 1.4609 0.27344 2.5742 0.82812 3.3438 0.55078 0.76172 1.3477 1.1406 2.3906 1.1406z"/>
  </symbol>
  <symbol id="j" overflow="visible">
   <path d="m10.5-3.1562c1.0508 0 1.8516-0.37891 2.4062-1.1406 0.55078-0.76953 0.82812-1.8828 0.82812-3.3438 0-1.457-0.27734-2.5664-0.82812-3.3281-0.55469-0.76953-1.3555-1.1562-2.4062-1.1562-1.0547 0-1.8594 0.38672-2.4219 1.1562-0.55469 0.77344-0.82812 1.8828-0.82812 3.3281 0 1.4492 0.27344 2.5586 0.82812 3.3281 0.5625 0.77344 1.3672 1.1562 2.4219 1.1562zm-3.25-9.9219c0.67578-0.88281 1.4219-1.5391 2.2344-1.9688 0.82031-0.42578 1.7656-0.64062 2.8281-0.64062 1.8945 0 3.4453 0.75 4.6562 2.25 1.207 1.5 1.8125 3.4336 1.8125 5.7969 0 2.3555-0.60547 4.2812-1.8125 5.7812-1.2109 1.5-2.7617 2.25-4.6562 2.25-1.0625 0-2.0078-0.21094-2.8281-0.625-0.8125-0.42578-1.5586-1.0859-2.2344-1.9844v2.2188h-4.8906v-21.281h4.8906z"/>
  </symbol>
  <symbol id="i" overflow="visible">
   <path d="m0.34375-15.312h4.8906l4.125 10.391 3.5-10.391h4.8906l-6.4375 16.766c-0.64844 1.6953-1.4023 2.8828-2.2656 3.5625-0.86719 0.6875-2 1.0312-3.4062 1.0312h-2.8438v-3.2188h1.5312c0.83203 0 1.4375-0.13672 1.8125-0.40625 0.38281-0.26172 0.67969-0.73047 0.89062-1.4062l0.14062-0.42188z"/>
  </symbol>
  <symbol id="h" overflow="visible">
   <path d="m0.14062-20.406h5.2812l5.4219 15.062 5.4062-15.062h5.2812l-7.5625 20.406h-6.2656z"/>
  </symbol>
  <symbol id="g" overflow="visible">
   <path d="m14.719-14.828v3.9844c-0.65625-0.45703-1.3242-0.79688-2-1.0156-0.66797-0.21875-1.3594-0.32812-2.0781-0.32812-1.3672 0-2.4336 0.40234-3.2031 1.2031-0.76172 0.79297-1.1406 1.9062-1.1406 3.3438 0 1.4297 0.37891 2.543 1.1406 3.3438 0.76953 0.79297 1.8359 1.1875 3.2031 1.1875 0.75781 0 1.4844-0.10938 2.1719-0.32812 0.6875-0.22656 1.3203-0.56641 1.9062-1.0156v4c-0.76172 0.28125-1.5391 0.48828-2.3281 0.625-0.78125 0.14453-1.5742 0.21875-2.375 0.21875-2.7617 0-4.9219-0.70703-6.4844-2.125-1.5547-1.4141-2.3281-3.3828-2.3281-5.9062 0-2.5312 0.77344-4.5039 2.3281-5.9219 1.5625-1.4141 3.7227-2.125 6.4844-2.125 0.80078 0 1.5938 0.074219 2.375 0.21875 0.78125 0.13672 1.5547 0.35156 2.3281 0.64062z"/>
  </symbol>
  <symbol id="c" overflow="visible">
   <path d="m9.6406-12.188c-1.0859 0-1.9141 0.39062-2.4844 1.1719-0.57422 0.78125-0.85938 1.9062-0.85938 3.375s0.28516 2.5938 0.85938 3.375c0.57031 0.77344 1.3984 1.1562 2.4844 1.1562 1.0625 0 1.875-0.38281 2.4375-1.1562 0.57031-0.78125 0.85938-1.9062 0.85938-3.375s-0.28906-2.5938-0.85938-3.375c-0.5625-0.78125-1.375-1.1719-2.4375-1.1719zm0-3.5c2.6328 0 4.6914 0.71484 6.1719 2.1406 1.4766 1.418 2.2188 3.3867 2.2188 5.9062 0 2.5117-0.74219 4.4805-2.2188 5.9062-1.4805 1.418-3.5391 2.125-6.1719 2.125-2.6484 0-4.7148-0.70703-6.2031-2.125-1.4922-1.4258-2.2344-3.3945-2.2344-5.9062 0-2.5195 0.74219-4.4883 2.2344-5.9062 1.4883-1.4258 3.5547-2.1406 6.2031-2.1406z"/>
  </symbol>
  <symbol id="t" overflow="visible">
   <path d="m14.312-14.828v3.7188c-1.043-0.4375-2.0547-0.76562-3.0312-0.98438-0.98047-0.21875-1.9023-0.32812-2.7656-0.32812-0.92969 0-1.6211 0.11719-2.0781 0.34375-0.44922 0.23047-0.67188 0.58984-0.67188 1.0781 0 0.38672 0.17188 0.68359 0.51562 0.89062 0.34375 0.21094 0.95703 0.36719 1.8438 0.46875l0.85938 0.125c2.5078 0.32422 4.1953 0.85156 5.0625 1.5781 0.86328 0.73047 1.2969 1.8711 1.2969 3.4219 0 1.6367-0.60547 2.8672-1.8125 3.6875-1.1992 0.8125-2.9922 1.2188-5.375 1.2188-1.0234 0-2.0742-0.078125-3.1562-0.23438-1.0742-0.15625-2.1797-0.39453-3.3125-0.71875v-3.7188c0.96875 0.48047 1.9609 0.83984 2.9844 1.0781 1.0312 0.23047 2.0781 0.34375 3.1406 0.34375 0.95703 0 1.6758-0.12891 2.1562-0.39062 0.47656-0.26953 0.71875-0.66406 0.71875-1.1875 0-0.4375-0.16797-0.75781-0.5-0.96875-0.33594-0.21875-0.99609-0.38281-1.9844-0.5l-0.85938-0.10938c-2.1797-0.26953-3.7031-0.77344-4.5781-1.5156-0.875-0.73828-1.3125-1.8594-1.3125-3.3594 0-1.625 0.55078-2.8281 1.6562-3.6094 1.1133-0.78906 2.8203-1.1875 5.125-1.1875 0.89453 0 1.8359 0.074219 2.8281 0.21875 1 0.13672 2.082 0.35156 3.25 0.64062z"/>
  </symbol>
  <symbol id="f" overflow="visible">
   <path d="m2.5781-20.406h8.7344c2.5938 0 4.582 0.57812 5.9688 1.7344 1.3945 1.1484 2.0938 2.7891 2.0938 4.9219 0 2.1367-0.69922 3.7812-2.0938 4.9375-1.3867 1.1562-3.375 1.7344-5.9688 1.7344h-3.4844v7.0781h-5.25zm5.25 3.8125v5.7031h2.9219c1.0195 0 1.8047-0.25 2.3594-0.75 0.5625-0.5 0.84375-1.2031 0.84375-2.1094 0-0.91406-0.28125-1.6172-0.84375-2.1094-0.55469-0.48828-1.3398-0.73438-2.3594-0.73438z"/>
  </symbol>
  <symbol id="s" overflow="visible">
   <path d="m2.3594-15.312h4.8906v15.312h-4.8906zm0-5.9688h4.8906v4h-4.8906z"/>
  </symbol>
  <symbol id="e" overflow="visible">
   <path d="m17.75-9.3281v9.3281h-4.9219v-7.1406c0-1.3203-0.03125-2.2344-0.09375-2.7344s-0.16797-0.86719-0.3125-1.1094c-0.1875-0.3125-0.44922-0.55469-0.78125-0.73438-0.32422-0.17578-0.69531-0.26562-1.1094-0.26562-1.0234 0-1.8242 0.39844-2.4062 1.1875-0.58594 0.78125-0.875 1.8711-0.875 3.2656v7.5312h-4.8906v-15.312h4.8906v2.2344c0.73828-0.88281 1.5195-1.5391 2.3438-1.9688 0.83203-0.42578 1.75-0.64062 2.75-0.64062 1.7695 0 3.1133 0.54688 4.0312 1.6406 0.91406 1.0859 1.375 2.6562 1.375 4.7188z"/>
  </symbol>
  <symbol id="r" overflow="visible">
   <path d="m12.422-21.281v3.2188h-2.7031c-0.6875 0-1.1719 0.125-1.4531 0.375-0.27344 0.25-0.40625 0.6875-0.40625 1.3125v1.0625h4.1875v3.5h-4.1875v11.812h-4.8906v-11.812h-2.4375v-3.5h2.4375v-1.0625c0-1.6641 0.46094-2.8984 1.3906-3.7031 0.92578-0.80078 2.3672-1.2031 4.3281-1.2031z"/>
  </symbol>
  <symbol id="q" overflow="visible">
   <path d="m16.547-12.766c0.61328-0.94531 1.3477-1.6719 2.2031-2.1719 0.85156-0.5 1.7891-0.75 2.8125-0.75 1.7578 0 3.0977 0.54688 4.0156 1.6406 0.92578 1.0859 1.3906 2.6562 1.3906 4.7188v9.3281h-4.9219v-7.9844-0.35938c0.007813-0.13281 0.015625-0.32031 0.015625-0.5625 0-1.082-0.16406-1.8633-0.48438-2.3438-0.3125-0.48828-0.82422-0.73438-1.5312-0.73438-0.92969 0-1.6484 0.38672-2.1562 1.1562-0.51172 0.76172-0.77344 1.8672-0.78125 3.3125v7.5156h-4.9219v-7.9844c0-1.6953-0.14844-2.7852-0.4375-3.2656-0.29297-0.48828-0.8125-0.73438-1.5625-0.73438-0.9375 0-1.6641 0.38672-2.1719 1.1562-0.51172 0.76172-0.76562 1.8594-0.76562 3.2969v7.5312h-4.9219v-15.312h4.9219v2.2344c0.60156-0.86328 1.2891-1.5156 2.0625-1.9531 0.78125-0.4375 1.6406-0.65625 2.5781-0.65625 1.0625 0 2 0.25781 2.8125 0.76562 0.8125 0.51172 1.4258 1.2305 1.8438 2.1562z"/>
  </symbol>
  <symbol id="p" overflow="visible">
   <path d="m17.75-9.3281v9.3281h-4.9219v-7.1094c0-1.3438-0.03125-2.2656-0.09375-2.7656s-0.16797-0.86719-0.3125-1.1094c-0.1875-0.3125-0.44922-0.55469-0.78125-0.73438-0.32422-0.17578-0.69531-0.26562-1.1094-0.26562-1.0234 0-1.8242 0.39844-2.4062 1.1875-0.58594 0.78125-0.875 1.8711-0.875 3.2656v7.5312h-4.8906v-21.281h4.8906v8.2031c0.73828-0.88281 1.5195-1.5391 2.3438-1.9688 0.83203-0.42578 1.75-0.64062 2.75-0.64062 1.7695 0 3.1133 0.54688 4.0312 1.6406 0.91406 1.0859 1.375 2.6562 1.375 4.7188z"/>
  </symbol>
  <symbol id="o" overflow="visible">
   <path d="m2.5781-20.406h5.875l7.4219 14v-14h4.9844v20.406h-5.875l-7.4219-14v14h-4.9844z"/>
  </symbol>
  <symbol id="n" overflow="visible">
   <path d="m2.1875-5.9688v-9.3438h4.9219v1.5312c0 0.83594-0.007813 1.875-0.015625 3.125-0.011719 1.25-0.015625 2.0859-0.015625 2.5 0 1.2422 0.03125 2.1328 0.09375 2.6719 0.070313 0.54297 0.17969 0.93359 0.32812 1.1719 0.20703 0.32422 0.47266 0.57422 0.79688 0.75 0.32031 0.16797 0.69141 0.25 1.1094 0.25 1.0195 0 1.8203-0.39062 2.4062-1.1719 0.58203-0.78125 0.875-1.8672 0.875-3.2656v-7.5625h4.8906v15.312h-4.8906v-2.2188c-0.74219 0.89844-1.5234 1.5586-2.3438 1.9844-0.82422 0.41406-1.7344 0.625-2.7344 0.625-1.7617 0-3.1055-0.53906-4.0312-1.625-0.92969-1.082-1.3906-2.6602-1.3906-4.7344z"/>
  </symbol>
  <symbol id="m" overflow="visible">
   <path d="m2.3594-15.312h4.8906v15.031c0 2.0508-0.49609 3.6172-1.4844 4.7031-0.98047 1.082-2.4062 1.625-4.2812 1.625h-2.4219v-3.2188h0.85938c0.92578 0 1.5625-0.21094 1.9062-0.625 0.35156-0.41797 0.53125-1.2461 0.53125-2.4844zm0-5.9688h4.8906v4h-4.8906z"/>
  </symbol>
 </defs>
 <g>
  <path d="m543.33 447.52c-0.16797-0.11328-0.61719-0.28125-0.78516-0.33594-20.496-8.625-42.055-15.961-64.23-21.785l-65.52-17.301c0.39062-5.8242 0.72656-11.703 1.0078-17.641h74.535c10.527 0 19.824-6.6641 23.184-16.688 2.1289-6.1602 1.625-13.105-1.3984-18.93l-57.625-112.95c-6.7773-13.273-19.039-22.512-33.656-25.312l-10.922-2.1289c-8.9609-2.4648-17.922-4.4258-26.77-5.8242v-16.016c18.648-15.008 31.641-42.336 31.641-72.016l0.003906-0.89453v-0.22266c-0.26562-22.355-8.5781-45.223-24.473-60.422 5.1367-25.164-14.051-47.828-38.809-47.828-21.84 0-39.648 17.754-39.648 39.648 0 2.8008 0.28125 5.4883 0.89453 8.1211v0.054687c-5.9375 5.6016-10.977 12.434-14.895 20.215-0.55859 1.1211-1.1211 2.2383-1.625 3.3594v0.054688c-1.6797 3.6406-3.1367 7.5039-4.2578 11.48-0.61719 2.0156-1.1211 4.0312-1.5664 6.1055-0.50391 2.4648-0.95312 4.9844-1.3438 7.5039-0.61719 4.1445-0.89453 8.457-0.89453 12.824 0 29.68 13.047 57.008 31.695 72.016v14.391c-15.625 1.7344-31.078 5.207-46.199 10.359-0.33594 0.11328-0.67188 0.28125-0.95312 0.39062-12.488 3.75-22.848 12.375-28.84 24.137l-57.621 112.96c-8.0664 15.539 2.707 35.617 22.008 35.617h77.055c0.28125 5.8789 0.55859 11.703 0.78516 17.582-73.988 20.422-150.48 32.785-152.1 64.289-1.0742 23.449 48.008 54.75 80.977 46.426-1.5664 0 9.9844-1.0977 17.191-1.793-13.105 10.129-6.207 31.809 10.922 31.809 1.5117 0 3.0234-0.16797 4.5352-0.55859 39.172-9.3555 54.719-17.387 84.168-16.742 158.88 3.4609 184.77 11.043 218.18-16.016 24.293-19.688 30.641-49.348-4.6484-67.934zm-126.62-219.97c11.199 2.1836 20.609 9.2383 25.816 19.434l57.625 112.95c1.625 3.1367 1.9023 6.8867 0.78516 10.246-1.8477 5.4336-6.8867 9.0742-12.656 9.0742h-120.34c-8.1641 0-15.082-6.5703-15.176-15.062v-60.594c2.4062 2.6875 3.9766 5.8789 4.3672 9.2383l4.5352 34.719c1.1562 8.793 9.2812 15.098 18.145 13.832l24.191-3.2461 11.258-1.5664 10.922-1.457c3.6953-0.50391 7-2.1836 9.4648-4.8164 4.8164 2.7461 13.609 6.6641 26.266 8.0625 0.16797 0.054687 0.28125 0.054687 0.44922 0.054687 2.1289 0 3.918-1.625 4.1992-3.7539 0.22266-2.2969-1.3984-4.3672-3.7539-4.6484-11.426-1.2891-19.152-4.8164-23.129-7.1133 0.83984-3.4727 0.50391-7.168-1.0078-10.473l-4.3125-9.2969c-8.457-18.367-14.953-37.633-19.32-57.398-0.44922-12.992-1.0625-25.93-1.8477-38.863zm-0.94922 79.969c2.5195 6.8867 5.3203 13.664 8.3984 20.328l4.3125 9.2383c0.67188 1.457 0.61719 3.0781-0.16797 4.4219-0.72656 1.3984-2.0703 2.2969-3.6406 2.5195l-9.1836 1.2305c0.28125-12.48 0.39062-25.082 0.28125-37.738zm-17.863-211.46c0.22266 0.78516 0.44922 1.5664 0.67188 2.3516-15.23-17.137-32.762-26.32-50.848-26.32h-1.793c-16.465 0.5625-31.863 8.793-44.688 23.574 17.434-55.297 80.664-55.52 96.656 0.39453zm-76.832-45.246c0.054688-15.68 12.766-28.391 28.445-28.391 7.8398 0 14.953 3.1914 20.105 8.3438 5.1523 5.1523 8.3438 12.266 8.3438 20.105-18.379-11.488-38.828-10.758-56.895-0.058594zm-23.691 70.223c12.879-23.742 30.184-37.07 48.945-37.742 19.656-0.83984 39.367 12.824 55.273 37.914-0.26953 34.082-22.43 73.934-54.992 72.07-21.203-1.1797-48.977-30.133-49.227-72.242zm31.699 78.793c0.11328 0.054687 0.22266 0.11328 0.33594 0.11328 4.8906 2.4453 12.535 4.7031 20.105 4.7031 4.4805 0 8.9688-0.59766 15.398-2.7461h0.054687c1.3984-0.50391 2.7422-1.0625 4.1445-1.6797 0.054687 0 0.11328-0.054687 0.16797-0.11328 0.22266-0.054687 0.44922-0.16797 0.67188-0.28125v33.152c0 11.312-9.1836 20.441-20.441 20.441-11.699 0-20.441-9.4648-20.441-20.441 0.003906-0.57031 0.003906-33.984 0.003906-33.148zm20.438 64.793c17.473 0 31.641-14.168 31.641-31.641v-12.992c4.8711 0.78516 9.6875 1.7344 14.559 2.9102l5.9922 33.543c0.67188 3.5859 1.3438 7.168 2.1289 10.695 0.89453 26.711 1.0625 53.422 0.44922 79.633-22.707 2.6719-30.305 6.3672-31.527-0.67188l-4.4805-34.719c-1.875-13.984-16.879-26.164-23.07-23.688-0.054687 0-0.11328 0.054687-0.16797 0.054687-0.054687 0.054688-0.16797 0.054688-0.22266 0.11328-10.078 4.2578-17.359 13.496-18.703 23.52l-4.5352 34.719c-0.90625 6.9492-8.8711 3.3477-29.68 0.95312-1.457-21-3.3047-42.055-5.543-63.055 2.5742-9.0742 4.6484-18.258 6.3281-27.551l6.2734-35c6.2734-1.3984 12.602-2.4648 18.926-3.1914v14.727c-0.007812 17.832 14.402 31.641 31.633 31.641zm-68.934 80.863c-8.9844-1.6797-12.664-0.4375-14.504-3.9766-2.4531-4.2031 2.2266-6.1836 11.594-31.473 1.1172 11.816 2.0703 23.633 2.9102 35.449zm-74.426 33.77h-0.11328c-9.8594 0-16.406-10.461-11.816-19.32l57.625-112.95c3.75-7.3906 9.7422-13.105 16.969-16.465 2.8008-1.3438 5.7695-2.3516 8.8477-2.9688l2.0156-0.39063 7.1133-1.3438-4.2578 23.633-0.89453 5.0391c-1.7344 9.5742-3.9219 18.984-6.6641 28.336-11.086 38.961-22.945 50.258-20.215 60.367-4.0898 2.2969-11.648 5.6016-22.68 6.832-2.2969 0.28125-3.9766 2.3516-3.6953 4.6484 0.22266 2.1289 2.0156 3.7539 4.1445 3.7539 0.16797 0 0.33594 0 0.50391-0.054688 12.375-1.3984 21.055-5.1523 25.93-7.8945 2.4062 2.5195 5.6562 4.1992 9.2383 4.6484 1.5195 0.20703 49.414 6.6836 46.367 6.2734 9.1758 1.3125 17.035-5.3945 18.145-13.832l4.5352-34.719c0.39062-3.3594 1.9609-6.5508 4.3125-9.2383v60.648c0 4.9297-2.4648 9.4648-6.4414 12.262-2.5742 1.793-5.543 2.7461-8.6797 2.7461-44.777-0.007812-95.699-0.007812-120.29-0.007812zm120.29 11.199c5.4336 0 10.641-1.625 15.062-4.7617 2.1836-1.5117 4.1445-3.3594 5.6562-5.4336 4.418 5.8359 12.035 10.191 20.777 10.191h34.719c-0.33594 5.4883-0.61719 10.863-1.0078 16.238h-106.4c-0.22266-5.4336-0.44922-10.809-0.78516-16.238zm-109.03 115.7-5.4883-23.633c-5.1406-49.938 79.945-13.367 147.28-5.1523 8.3984 1.5664 17.082-1.5117 22.625-8.1211l2.2383-2.8008c3.082-3.3594 8.0078-6.6641 18.816-2.3516 2.9102 1.2305 5.9375 1.9062 8.9023 1.9609 41.352 2.4336 57.906-1.6758 54.375 4.8711-1.2734 2.4062-3.5781 1.9023-6.6641 2.8555-195.36 39.207-206.46 24.219-242.09 32.371zm25.367 31.191c-7.8633 2.1836-11.844-9.5039-3.9766-12.543 11.031-4.2578 26.098-9.9688 29.625-11.312 62.215-3.8086 132.72-16.574 190.79-28.336 7.2812 9.207 11.523 20.434 1.0508 37.969l-130.24-2.8555c-31.656-0.64453-49.027 8.0469-87.246 17.078zm298.14-30.574c-14.672 11.816-32.762 17.473-53.93 16.914-1.0234-0.019531-15-0.29688-14.141-0.28125 6.6484-13.742 6.5508-26.285-0.35156-38.465 4.6641 1.7031 11.023 3.3672 18.07 3.3672 2.9141 0 5.9492-0.28516 9.0234-0.96875 2.2656-0.50781 3.6914-2.75 3.1875-5.0156-0.50781-2.2695-2.7852-3.6523-5.0156-3.1875-8.4375 1.8906-16.707-0.058594-22.223-2.0469 2.5117-4.1211 2.7461-8.5234 1.2539-12.316-5.918-14.625-21.953-6.3672-64.734-9.9102-1.5117-0.054687-3.1914-0.39062-4.8711-1.1211-16.184-6.4414-25.984-0.72656-31.586 5.375l-2.4648 3.0234c-2.8555 3.4141-7.3906 5.0977-11.871 4.1992-82.023-13.73-124.23-31.488-149.13-12.992h-0.054687c-0.011719 0.007813-0.023438 0.019532-0.035156 0.027344-34.113-4.3203-37.52 13.02-28.625 13.02 4.2422 0 2.0742-5.9766 21.41-5.1602-10.102 16.758 0.29297 36.914 1.6484 47.438-24.336 3.4805-64.098-20.672-63.281-35.785 1.1328-21.504 80.434-36.844 147.39-54.992h115.59l69.273 18.312c21.672 5.7109 42.785 12.879 62.664 21.223 26.93 14.176 21.641 34.039 2.8047 49.344z"/>
 </g>
</svg>
