<?xml version="1.0" encoding="UTF-8"?>
<svg width="700pt" height="700pt" version="1.1" viewBox="0 0 700 700" xmlns="http://www.w3.org/2000/svg" xmlns:xlink="http://www.w3.org/1999/xlink">
 <defs>
  <symbol id="v" overflow="visible">
   <path d="m18.766-1.125c-0.96875 0.5-1.9805 0.875-3.0312 1.125-1.043 0.25781-2.1367 0.39062-3.2812 0.39062-3.3984 0-6.0898-0.94531-8.0781-2.8438-1.9922-1.9062-2.9844-4.4844-2.9844-7.7344 0-3.2578 0.99219-5.8359 2.9844-7.7344 1.9883-1.9062 4.6797-2.8594 8.0781-2.8594 1.1445 0 2.2383 0.13281 3.2812 0.39062 1.0508 0.25 2.0625 0.625 3.0312 1.125v4.2188c-0.98047-0.65625-1.9453-1.1406-2.8906-1.4531-0.94922-0.3125-1.9492-0.46875-3-0.46875-1.875 0-3.3516 0.60547-4.4219 1.8125-1.0742 1.1992-1.6094 2.8555-1.6094 4.9688 0 2.1055 0.53516 3.7617 1.6094 4.9688 1.0703 1.1992 2.5469 1.7969 4.4219 1.7969 1.0508 0 2.0508-0.14844 3-0.45312 0.94531-0.3125 1.9102-0.80078 2.8906-1.4688z"/>
  </symbol>
  <symbol id="d" overflow="visible">
   <path d="m13.734-11.141c-0.4375-0.19531-0.87109-0.34375-1.2969-0.4375-0.41797-0.10156-0.83984-0.15625-1.2656-0.15625-1.2617 0-2.2305 0.40625-2.9062 1.2188-0.67969 0.80469-1.0156 1.9531-1.0156 3.4531v7.0625h-4.8906v-15.312h4.8906v2.5156c0.625-1 1.3438-1.7266 2.1562-2.1875 0.82031-0.46875 1.8008-0.70312 2.9375-0.70312 0.16406 0 0.34375 0.011719 0.53125 0.03125 0.19531 0.011719 0.47656 0.039062 0.84375 0.078125z"/>
  </symbol>
  <symbol id="a" overflow="visible">
   <path d="m17.641-7.7031v1.4062h-11.453c0.125 1.1484 0.53906 2.0078 1.25 2.5781 0.70703 0.57422 1.7031 0.85938 2.9844 0.85938 1.0312 0 2.082-0.14844 3.1562-0.45312 1.082-0.3125 2.1914-0.77344 3.3281-1.3906v3.7656c-1.1562 0.4375-2.3125 0.76562-3.4688 0.98438-1.1562 0.22656-2.3125 0.34375-3.4688 0.34375-2.7734 0-4.9297-0.70312-6.4688-2.1094-1.5312-1.4062-2.2969-3.3789-2.2969-5.9219 0-2.5 0.75391-4.4609 2.2656-5.8906 1.5078-1.4375 3.582-2.1562 6.2188-2.1562 2.4062 0 4.332 0.73047 5.7812 2.1875 1.4453 1.4492 2.1719 3.3828 2.1719 5.7969zm-5.0312-1.625c0-0.92578-0.27344-1.6719-0.8125-2.2344-0.54297-0.57031-1.25-0.85938-2.125-0.85938-0.94922 0-1.7188 0.26562-2.3125 0.79688s-0.96484 1.2969-1.1094 2.2969z"/>
  </symbol>
  <symbol id="m" overflow="visible">
   <path d="m9.2188-6.8906c-1.0234 0-1.793 0.17188-2.3125 0.51562-0.51172 0.34375-0.76562 0.85547-0.76562 1.5312 0 0.625 0.20703 1.1172 0.625 1.4688 0.41406 0.34375 0.98828 0.51562 1.7188 0.51562 0.92578 0 1.7031-0.32812 2.3281-0.98438 0.63281-0.66406 0.95312-1.4922 0.95312-2.4844v-0.5625zm7.4688-1.8438v8.7344h-4.9219v-2.2656c-0.65625 0.92969-1.3984 1.6055-2.2188 2.0312-0.82422 0.41406-1.8242 0.625-3 0.625-1.5859 0-2.8711-0.45703-3.8594-1.375-0.99219-0.92578-1.4844-2.1289-1.4844-3.6094 0-1.7891 0.61328-3.1016 1.8438-3.9375 1.2383-0.84375 3.1797-1.2656 5.8281-1.2656h2.8906v-0.39062c0-0.76953-0.30859-1.332-0.92188-1.6875-0.61719-0.36328-1.5703-0.54688-2.8594-0.54688-1.0547 0-2.0312 0.10547-2.9375 0.3125-0.89844 0.21094-1.7305 0.52344-2.5 0.9375v-3.7344c1.0391-0.25 2.0859-0.44141 3.1406-0.57812 1.0625-0.13281 2.125-0.20312 3.1875-0.20312 2.7578 0 4.75 0.54688 5.9688 1.6406 1.2266 1.0859 1.8438 2.8555 1.8438 5.3125z"/>
  </symbol>
  <symbol id="c" overflow="visible">
   <path d="m7.7031-19.656v4.3438h5.0469v3.5h-5.0469v6.5c0 0.71094 0.14062 1.1875 0.42188 1.4375s0.83594 0.375 1.6719 0.375h2.5156v3.5h-4.1875c-1.9375 0-3.3125-0.39844-4.125-1.2031-0.80469-0.8125-1.2031-2.1797-1.2031-4.1094v-6.5h-2.4219v-3.5h2.4219v-4.3438z"/>
  </symbol>
  <symbol id="l" overflow="visible">
   <path d="m12.766-13.078v-8.2031h4.9219v21.281h-4.9219v-2.2188c-0.66797 0.90625-1.4062 1.5703-2.2188 1.9844s-1.7578 0.625-2.8281 0.625c-1.8867 0-3.4336-0.75-4.6406-2.25-1.2109-1.5-1.8125-3.4258-1.8125-5.7812 0-2.3633 0.60156-4.2969 1.8125-5.7969 1.207-1.5 2.7539-2.25 4.6406-2.25 1.0625 0 2 0.21484 2.8125 0.64062 0.82031 0.42969 1.5664 1.0859 2.2344 1.9688zm-3.2188 9.9219c1.0391 0 1.8359-0.37891 2.3906-1.1406 0.55078-0.76953 0.82812-1.8828 0.82812-3.3438 0-1.457-0.27734-2.5664-0.82812-3.3281-0.55469-0.76953-1.3516-1.1562-2.3906-1.1562-1.043 0-1.8398 0.38672-2.3906 1.1562-0.55469 0.76172-0.82812 1.8711-0.82812 3.3281 0 1.4609 0.27344 2.5742 0.82812 3.3438 0.55078 0.76172 1.3477 1.1406 2.3906 1.1406z"/>
  </symbol>
  <symbol id="k" overflow="visible">
   <path d="m10.5-3.1562c1.0508 0 1.8516-0.37891 2.4062-1.1406 0.55078-0.76953 0.82812-1.8828 0.82812-3.3438 0-1.457-0.27734-2.5664-0.82812-3.3281-0.55469-0.76953-1.3555-1.1562-2.4062-1.1562-1.0547 0-1.8594 0.38672-2.4219 1.1562-0.55469 0.77344-0.82812 1.8828-0.82812 3.3281 0 1.4492 0.27344 2.5586 0.82812 3.3281 0.5625 0.77344 1.3672 1.1562 2.4219 1.1562zm-3.25-9.9219c0.67578-0.88281 1.4219-1.5391 2.2344-1.9688 0.82031-0.42578 1.7656-0.64062 2.8281-0.64062 1.8945 0 3.4453 0.75 4.6562 2.25 1.207 1.5 1.8125 3.4336 1.8125 5.7969 0 2.3555-0.60547 4.2812-1.8125 5.7812-1.2109 1.5-2.7617 2.25-4.6562 2.25-1.0625 0-2.0078-0.21094-2.8281-0.625-0.8125-0.42578-1.5586-1.0859-2.2344-1.9844v2.2188h-4.8906v-21.281h4.8906z"/>
  </symbol>
  <symbol id="j" overflow="visible">
   <path d="m0.34375-15.312h4.8906l4.125 10.391 3.5-10.391h4.8906l-6.4375 16.766c-0.64844 1.6953-1.4023 2.8828-2.2656 3.5625-0.86719 0.6875-2 1.0312-3.4062 1.0312h-2.8438v-3.2188h1.5312c0.83203 0 1.4375-0.13672 1.8125-0.40625 0.38281-0.26172 0.67969-0.73047 0.89062-1.4062l0.14062-0.42188z"/>
  </symbol>
  <symbol id="i" overflow="visible">
   <path d="m2.5781-20.406h6.6875l4.6562 10.922 4.6719-10.922h6.6875v20.406h-4.9844v-14.938l-4.7031 11.016h-3.3281l-4.7031-11.016v14.938h-4.9844z"/>
  </symbol>
  <symbol id="h" overflow="visible">
   <path d="m2.3594-15.312h4.8906v15.312h-4.8906zm0-5.9688h4.8906v4h-4.8906z"/>
  </symbol>
  <symbol id="e" overflow="visible">
   <path d="m17.75-9.3281v9.3281h-4.9219v-7.1406c0-1.3203-0.03125-2.2344-0.09375-2.7344s-0.16797-0.86719-0.3125-1.1094c-0.1875-0.3125-0.44922-0.55469-0.78125-0.73438-0.32422-0.17578-0.69531-0.26562-1.1094-0.26562-1.0234 0-1.8242 0.39844-2.4062 1.1875-0.58594 0.78125-0.875 1.8711-0.875 3.2656v7.5312h-4.8906v-15.312h4.8906v2.2344c0.73828-0.88281 1.5195-1.5391 2.3438-1.9688 0.83203-0.42578 1.75-0.64062 2.75-0.64062 1.7695 0 3.1133 0.54688 4.0312 1.6406 0.91406 1.0859 1.375 2.6562 1.375 4.7188z"/>
  </symbol>
  <symbol id="g" overflow="visible">
   <path d="m2.3594-15.312h4.8906v15.031c0 2.0508-0.49609 3.6172-1.4844 4.7031-0.98047 1.082-2.4062 1.625-4.2812 1.625h-2.4219v-3.2188h0.85938c0.92578 0 1.5625-0.21094 1.9062-0.625 0.35156-0.41797 0.53125-1.2461 0.53125-2.4844zm0-5.9688h4.8906v4h-4.8906z"/>
  </symbol>
  <symbol id="b" overflow="visible">
   <path d="m9.6406-12.188c-1.0859 0-1.9141 0.39062-2.4844 1.1719-0.57422 0.78125-0.85938 1.9062-0.85938 3.375s0.28516 2.5938 0.85938 3.375c0.57031 0.77344 1.3984 1.1562 2.4844 1.1562 1.0625 0 1.875-0.38281 2.4375-1.1562 0.57031-0.78125 0.85938-1.9062 0.85938-3.375s-0.28906-2.5938-0.85938-3.375c-0.5625-0.78125-1.375-1.1719-2.4375-1.1719zm0-3.5c2.6328 0 4.6914 0.71484 6.1719 2.1406 1.4766 1.418 2.2188 3.3867 2.2188 5.9062 0 2.5117-0.74219 4.4805-2.2188 5.9062-1.4805 1.418-3.5391 2.125-6.1719 2.125-2.6484 0-4.7148-0.70703-6.2031-2.125-1.4922-1.4258-2.2344-3.3945-2.2344-5.9062 0-2.5195 0.74219-4.4883 2.2344-5.9062 1.4883-1.4258 3.5547-2.1406 6.2031-2.1406z"/>
  </symbol>
  <symbol id="u" overflow="visible">
   <path d="m12.766-2.5938c-0.66797 0.88672-1.4062 1.543-2.2188 1.9688-0.8125 0.41797-1.7578 0.625-2.8281 0.625-1.8672 0-3.4062-0.73438-4.625-2.2031-1.2188-1.4766-1.8281-3.3516-1.8281-5.625 0-2.2891 0.60938-4.1641 1.8281-5.625 1.2188-1.4688 2.7578-2.2031 4.625-2.2031 1.0703 0 2.0156 0.21484 2.8281 0.64062 0.8125 0.41797 1.5508 1.0742 2.2188 1.9688v-2.2656h4.9219v13.766c0 2.457-0.77734 4.3359-2.3281 5.6406-1.5547 1.3008-3.8086 1.9531-6.7656 1.9531-0.94922 0-1.8711-0.074219-2.7656-0.21875-0.89844-0.14844-1.7969-0.37109-2.7031-0.67188v-3.8125c0.86328 0.48828 1.7031 0.85156 2.5156 1.0938 0.82031 0.23828 1.6484 0.35938 2.4844 0.35938 1.6016 0 2.7734-0.35156 3.5156-1.0469 0.75-0.69922 1.125-1.7969 1.125-3.2969zm-3.2188-9.5312c-1.0117 0-1.8047 0.375-2.375 1.125-0.5625 0.74219-0.84375 1.7969-0.84375 3.1719 0 1.3984 0.26953 2.4609 0.8125 3.1875 0.55078 0.71875 1.3516 1.0781 2.4062 1.0781 1.0195 0 1.8125-0.36719 2.375-1.1094 0.5625-0.75 0.84375-1.8008 0.84375-3.1562 0-1.375-0.28125-2.4297-0.84375-3.1719-0.5625-0.75-1.3555-1.125-2.375-1.125z"/>
  </symbol>
  <symbol id="t" overflow="visible">
   <path d="m2.5781-20.406h5.25v7.4375l7.5938-7.4375h6.1094l-9.8281 9.6562 10.844 10.75h-6.5938l-8.125-8.0469v8.0469h-5.25z"/>
  </symbol>
  <symbol id="f" overflow="visible">
   <path d="m16.547-12.766c0.61328-0.94531 1.3477-1.6719 2.2031-2.1719 0.85156-0.5 1.7891-0.75 2.8125-0.75 1.7578 0 3.0977 0.54688 4.0156 1.6406 0.92578 1.0859 1.3906 2.6562 1.3906 4.7188v9.3281h-4.9219v-7.9844-0.35938c0.007813-0.13281 0.015625-0.32031 0.015625-0.5625 0-1.082-0.16406-1.8633-0.48438-2.3438-0.3125-0.48828-0.82422-0.73438-1.5312-0.73438-0.92969 0-1.6484 0.38672-2.1562 1.1562-0.51172 0.76172-0.77344 1.8672-0.78125 3.3125v7.5156h-4.9219v-7.9844c0-1.6953-0.14844-2.7852-0.4375-3.2656-0.29297-0.48828-0.8125-0.73438-1.5625-0.73438-0.9375 0-1.6641 0.38672-2.1719 1.1562-0.51172 0.76172-0.76562 1.8594-0.76562 3.2969v7.5312h-4.9219v-15.312h4.9219v2.2344c0.60156-0.86328 1.2891-1.5156 2.0625-1.9531 0.78125-0.4375 1.6406-0.65625 2.5781-0.65625 1.0625 0 2 0.25781 2.8125 0.76562 0.8125 0.51172 1.4258 1.2305 1.8438 2.1562z"/>
  </symbol>
  <symbol id="s" overflow="visible">
   <path d="m12.422-21.281v3.2188h-2.7031c-0.6875 0-1.1719 0.125-1.4531 0.375-0.27344 0.25-0.40625 0.6875-0.40625 1.3125v1.0625h4.1875v3.5h-4.1875v11.812h-4.8906v-11.812h-2.4375v-3.5h2.4375v-1.0625c0-1.6641 0.46094-2.8984 1.3906-3.7031 0.92578-0.80078 2.3672-1.2031 4.3281-1.2031z"/>
  </symbol>
  <symbol id="r" overflow="visible">
   <path d="m17.75-9.3281v9.3281h-4.9219v-7.1094c0-1.3438-0.03125-2.2656-0.09375-2.7656s-0.16797-0.86719-0.3125-1.1094c-0.1875-0.3125-0.44922-0.55469-0.78125-0.73438-0.32422-0.17578-0.69531-0.26562-1.1094-0.26562-1.0234 0-1.8242 0.39844-2.4062 1.1875-0.58594 0.78125-0.875 1.8711-0.875 3.2656v7.5312h-4.8906v-21.281h4.8906v8.2031c0.73828-0.88281 1.5195-1.5391 2.3438-1.9688 0.83203-0.42578 1.75-0.64062 2.75-0.64062 1.7695 0 3.1133 0.54688 4.0312 1.6406 0.91406 1.0859 1.375 2.6562 1.375 4.7188z"/>
  </symbol>
  <symbol id="q" overflow="visible">
   <path d="m2.5781-20.406h5.875l7.4219 14v-14h4.9844v20.406h-5.875l-7.4219-14v14h-4.9844z"/>
  </symbol>
  <symbol id="p" overflow="visible">
   <path d="m2.1875-5.9688v-9.3438h4.9219v1.5312c0 0.83594-0.007813 1.875-0.015625 3.125-0.011719 1.25-0.015625 2.0859-0.015625 2.5 0 1.2422 0.03125 2.1328 0.09375 2.6719 0.070313 0.54297 0.17969 0.93359 0.32812 1.1719 0.20703 0.32422 0.47266 0.57422 0.79688 0.75 0.32031 0.16797 0.69141 0.25 1.1094 0.25 1.0195 0 1.8203-0.39062 2.4062-1.1719 0.58203-0.78125 0.875-1.8672 0.875-3.2656v-7.5625h4.8906v15.312h-4.8906v-2.2188c-0.74219 0.89844-1.5234 1.5586-2.3438 1.9844-0.82422 0.41406-1.7344 0.625-2.7344 0.625-1.7617 0-3.1055-0.53906-4.0312-1.625-0.92969-1.082-1.3906-2.6602-1.3906-4.7344z"/>
  </symbol>
  <symbol id="o" overflow="visible">
   <path d="m2.5781-20.406h8.7344c2.5938 0 4.582 0.57812 5.9688 1.7344 1.3945 1.1484 2.0938 2.7891 2.0938 4.9219 0 2.1367-0.69922 3.7812-2.0938 4.9375-1.3867 1.1562-3.375 1.7344-5.9688 1.7344h-3.4844v7.0781h-5.25zm5.25 3.8125v5.7031h2.9219c1.0195 0 1.8047-0.25 2.3594-0.75 0.5625-0.5 0.84375-1.2031 0.84375-2.1094 0-0.91406-0.28125-1.6172-0.84375-2.1094-0.55469-0.48828-1.3398-0.73438-2.3594-0.73438z"/>
  </symbol>
  <symbol id="n" overflow="visible">
   <path d="m14.719-14.828v3.9844c-0.65625-0.45703-1.3242-0.79688-2-1.0156-0.66797-0.21875-1.3594-0.32812-2.0781-0.32812-1.3672 0-2.4336 0.40234-3.2031 1.2031-0.76172 0.79297-1.1406 1.9062-1.1406 3.3438 0 1.4297 0.37891 2.543 1.1406 3.3438 0.76953 0.79297 1.8359 1.1875 3.2031 1.1875 0.75781 0 1.4844-0.10938 2.1719-0.32812 0.6875-0.22656 1.3203-0.56641 1.9062-1.0156v4c-0.76172 0.28125-1.5391 0.48828-2.3281 0.625-0.78125 0.14453-1.5742 0.21875-2.375 0.21875-2.7617 0-4.9219-0.70703-6.4844-2.125-1.5547-1.4141-2.3281-3.3828-2.3281-5.9062 0-2.5312 0.77344-4.5039 2.3281-5.9219 1.5625-1.4141 3.7227-2.125 6.4844-2.125 0.80078 0 1.5938 0.074219 2.375 0.21875 0.78125 0.13672 1.5547 0.35156 2.3281 0.64062z"/>
  </symbol>
 </defs>
 <g>
  <path d="m366.78 275.92c-1.5117 0.55859-2.4648 1.8477-2.1289 2.8555 0.33594 1.0078 1.8477 1.3984 3.4141 0.89453 1.5664-0.55859 2.5742-1.8477 2.1836-2.8555-0.33203-1.0625-1.8438-1.3984-3.4688-0.89453z"/>
  <path d="m282.28 332.93c-1.3984 1.3984-1.9023 3.1914-1.1758 3.8633 0.72656 0.72656 2.4648 0.16797 3.8633-1.2891 1.3984-1.457 1.9023-3.1914 1.1758-3.9219-0.72656-0.72266-2.4609-0.10547-3.8633 1.3477z"/>
  <path d="m589.86 394.83c-1.4453-3.5938-3.5781-8.125-6.0547-13.371-4.0977-8.7148-9.2109-19.551-12.719-29.668-0.63672-1.8633-1.2812-3.7852-1.9219-5.8008-0.023437-0.10156-0.042968-0.19531-0.078125-0.29297-0.66016-2.1016-1.3281-4.2734-2.0117-6.5078-5.2578-17.164-11.805-38.539-25.961-55.281-6.5703-7.6992-8.9141-13.625-10.625-17.941-0.50781-1.293-0.97266-2.4531-1.4688-3.5-4.9297-10.496-12.117-33.188-19.074-55.559-0.58984-1.8203-1.2266-6.7539-1.5625-9.3984-0.11328-0.87891-0.12891-2.2383-0.17188-3.9492-0.28125-11.609-0.92578-38.809-25.379-46.586-16.672-5.3242-37.039 6.418-51.93 14.984l-4.0469 2.3203c-2.9805 1.6641-6.0469 3.3164-8.2812 4.1211-12.488 4.5938-51.543 24.383-69.484 36.551-19.273 13.148-37.391 31.535-51.941 46.305-2.7539 2.8047-5.375 5.4609-7.8164 7.8945-0.023437 0.023437-0.042969 0.039062-0.0625 0.0625l-0.023437 0.023437c-1.207 1.1016-4.0352 3.9609-4.0352 3.9609-0.32031 0.30859-5.0742 4.7656-6.7773 6.1367-2.625 2.1562-7.0391 2.5938-11.711 3.0508-2.2305 0.21875-4.457 0.44141-6.5508 0.84375-8.1133 1.6172-14.547 4.625-19.633 8.0078-1.0938-1.1016-2.3398-2.0391-3.8203-2.6328-7.0664-2.8398-15.652 1.9766-19.18 10.758-3.2695 8.1367-0.99219 16.754 4.9766 20.242-0.10156 5.3359 0.92969 10.672 2.7422 14.699-11.277 9.0391-25.094 22.23-37.406 34.008-12.723 12.18-27.148 25.984-30.688 26.898-2.1953 0.55469-6.2617 1.7734-10.703 3.1211-5.8281 1.7578-12.441 3.7539-15.895 4.543-5.75 1.3047-18.586 2.9609-25.328 3.6953-5.0625 0.55469-7.4648 4.0586-7.2188 7.2422 0.26953 3.4336 3.5352 6.9844 10.078 6.9844 0.28516 0 0.58203-0.003906 0.87891-0.023437 0.015625 0 0.027344-0.011719 0.042969-0.011719 0.28516 0.60547 0.64844 1.1758 1.1484 1.6562 0.93359 0.90234 2.6445 1.9492 5.5117 1.9492 0.13281 0 0.28125 0 0.42578-0.003907 3.8477-0.125 7.9648-0.72266 11.938-1.3008 4.4961-0.64453 9.1445-1.332 11.344-0.875 6.7422 1.3047 29.176 0.66016 29.398 0.66797 3.875-0.11719 7.1562-2.6836 9.3359-7.4531 1.4336-3.3984 2.4688-5.8594 6.8711-9.3281 5.2539-4.1211 48.176-32.711 71.191-47.691 5.918 2.3281 10.625 3.3203 14.387 3.3203 7.9258 0 11.949-4.1055 15.664-7.9023 6.0977-6.2344 10.371-6.0156 15.293-5.7734l1.3086 0.0625c3 0.25391 6.1992-1.5 7.9844-4.0391 1.8086-2.5664 2.0508-5.7734 0.71875-8.5898 0.21875-0.65625 2.0703-2.3477 3.707-3.8477 0 0 4.0664-3.4883 5.1562-4.2578 3.0234-2.1016 5.8789-4.082 5.8789-7.1016 0-3.1914-4.7422-9.5586-9.5742-12.977 1.6055-1.6406 2.9102-3.0234 3.7578-4.0156 0.83594-0.91797 2.9414-3.1484 5.7461-5.7188 0.027344 0 0.054688 0.023437 0.085938 0.023437 2.2969 0.12891 4.3281 0.68359 6.6875 1.3281 3.4844 0.94531 7.4492 2.0273 13.289 2.0273 4.457 0 10-0.62891 17.258-2.4297 19.98-4.9766 33.359-22.574 41.355-33.09 1.6133-2.1289 2.9727-3.9219 4.082-5.1797 5.9766-6.7656 26.852-23.684 35.527-30.621l0.28516-0.23047c8.5898 20.395 31.586 61.488 40.723 65.742 0.41406 0.46094 1.2656 1.7422 1.9531 2.7891 2.6211 3.9805 6.5742 10 12.293 12.863 8.5117 4.2578 29.348 36.754 34.676 47.086 1.3828 2.6055 3.2148 6.2617 5.0898 10.18 6.8594 14.527 7.0664 17.562 7.043 17.988-0.29297 1.9023-1.1641 7.6953-4.0156 8.8594-9.4023 3.8867-17.434 7.3398-27.996 13.316-1.125 0.64844-5.3125 0.92578-7.5664 1.0703-1.9727 0.125-3.5234 0.23047-4.5039 0.46484-2.1719 0.46484-3.832 2.1328-4.4336 4.457-0.60937 2.3281-0.027343 4.7031 1.4492 6.0039 2.0898 1.9219 7.0117 3.1641 12.293 3.1641 0.4375 0 0.88672-0.003907 1.3281-0.027344 1.793-0.089844 5.1523-0.33594 9.2891-0.63672 11.004-0.81641 29.41-2.168 35.414-1.6641 1.0039 0.085937 24.562 2.0234 29.406-0.60547 5.082-2.7422 3.9297-12.391 2.6367-15.59zm-273.83-82.816c-0.98047-0.53125-1.9258-0.89062-3.2422-1.2617 0 0-0.63281-0.09375-0.99609-0.11328-1.5469-0.074219-2.8516 1.125-2.918 2.6758-0.042969 0.94141 0.089843 1.5117 0.77344 2.0508 0.44922 0.35156 2.625 1.0703 2.8711 1.1484l-1.043 0.95703c-3.7031 3.3828-6.6289 6.0586-5.125 9.7148 0.61719 1.4688 0.58203 2.6602-0.10156 3.6289-0.81641 1.1523-2.3359 1.7852-3.1484 1.6641l-1.293-0.0625c-5.4922-0.26953-11.715-0.58203-19.617 7.4922-4.5625 4.6602-8.3086 8.4336-20.148 4.6484 2.2734-1.4727 4.1211-2.6641 5.4258-3.4961 10.086-6.3438 32.008-26.59 45.27-39.801 3.5781 2.0898 7.6484 7.4648 8.0195 8.6016-0.32422 0.64453-2.3242 2.0391-3.5352 2.8789m87.562-66.223c-1.1758 1.332-2.625 3.2383-4.3438 5.4922-7.5469 9.9297-20.184 26.551-38.242 31.047-15.34 3.8086-21.918 2.0156-27.727 0.42969-0.89453-0.24609-1.7812-0.46094-2.6719-0.67188 4.6914-3.6641 8.9336-6.1211 12.188-6.9883 1.5-0.39844 2.3867-1.9336 1.9883-3.4219-0.39844-1.5-1.9102-2.4023-3.4219-1.9883-6.418 1.7031-13.637 7.2422-18.547 11.574-3.6445 3.1914-6.3711 6.0703-7.7344 7.5703-1.2617 1.4766-3.3867 3.6562-6.125 6.3945-12.523 12.578-35.695 34.113-45.656 40.375-1.7695 1.1211-4.5195 2.9062-7.9727 5.1445 0 0-69.094 45.562-74.977 50.18-5.5312 4.3672-7.0039 7.8555-8.5898 11.621-0.81641 1.7695-2.2227 3.9023-4.3164 3.9648-5.6953 0.16797-23.102 0.41406-28.145-0.56641-3.1484-0.63672-7.8164 0.042969-13.238 0.82812-3.832 0.55469-7.7891 1.125-11.324 1.2422-1.2227 0.11719-1.8125-0.29688-1.4766-0.54688 1.8555-0.33594 12.992-2.3633 19.859-3.8242 1.5117-0.32422 2.4766-1.8086 2.1562-3.3281-0.32422-1.5117-1.832-2.4414-3.3281-2.1562-6.7969 1.4492-17.84 3.457-19.719 3.7969-1.6875 0.32422-3.0117 1.2891-3.8906 2.5547-0.26172-0.054688-0.52734-0.11719-0.80469-0.074219-3.4336 0.12109-5.0586-1.0898-5.1172-1.8008-0.035156-0.40234 0.64453-1.0586 2.2461-1.2383 4.9336-0.54297 19.23-2.2734 25.961-3.8086 3.6406-0.82422 10.348-2.8516 16.27-4.6367 4.3359-1.3047 8.3086-2.5078 10.461-3.0508 4.75-1.2227 15.172-11.031 33.188-28.273 13.043-12.477 27.82-26.617 39.234-35.449 5.8203-4.4922 10.27-7.2422 13.227-8.1641 1.6016-0.49219 8.3828-5.7617 8.4492-5.8203 7.0742-6.0703 16.27-16.375 19.281-21.578l0.91406-1.5586c2.1836-3.7109 6.7148-11.445 9.7266-15.199 1.1328-1.3984 2.9609-3.6055 5.3711-6.2344 0.10547-0.089844 0.21875-0.17969 0.29297-0.25781 0.41016-0.45312 0.88672-0.91797 1.4492-1.4453l0.023437-0.023438c1.1367-1.0742 2.3359-2.2734 3.5273-3.4648 0.011719-0.011718 0.015625-0.015624 0.027344-0.027343l0.027344-0.027344c8.1094-7.6328 21.113-17.551 37.117-21.555 1.5078-0.375 2.4141-1.8984 2.0391-3.3945-0.37891-1.5078-1.9219-2.418-3.3945-2.0391-4.9688 1.2422-9.6133 3.0469-13.984 5.1172 11.363-11.137 24.031-22.695 37.172-31.668 17.656-11.973 56.016-31.422 68.266-35.926 1.1641-0.42578 2.5039-1.0547 3.8789-1.7344-0.92578 9.8906 2.4531 21.168 4.2188 26.168 0.33203 0.95703 0.66016 2 1.0117 3.0898 1.8984 5.8867 4.1719 12.84 8.2812 16.559-9.9297 8.0195-27.488 22.434-33.105 28.793zm179.82 158.99c-2.0273 0.93359-14.789 0.92578-26.27-0.042968-6.4297-0.56641-24.406 0.77734-36.305 1.6523-4.082 0.30859-7.3867 0.55469-9.1211 0.63281-5.1914 0.25391-8.9336-1.0938-9.4297-1.4492-0.10547-0.28125 0.027344-0.94531 0.28516-1.0938 0.72266-0.17188 2.0703-0.24219 3.6172-0.33984 4.5312-0.29688 7.8945-0.59375 9.9727-1.7969 10.266-5.8086 18.133-9.1914 27.352-12.996 5.7773-2.3633 6.9648-10.238 7.4141-13.199 0.25781-1.6641-0.21875-4.8984-4.6328-14.895 0.67188 0.078125 1.3477 0.14062 2.0273 0.14062 3.3281 0 6.6406-0.91406 9.3516-2.1953 3.0195-1.4297 5.4727-3.332 7.2461-5.4766 3.5898 10.164 8.5781 20.805 12.633 29.398 2.4375 5.168 4.543 9.6328 5.9258 13.082 0.97266 2.4062 0.91016 7.793-0.066406 8.5781z"/>
 </g>
</svg>
